<?xml version="1.0" encoding="UTF-8"?>
<!-- Generator: Adobe Illustrator 18.1.1, SVG Export Plug-In . SVG Version: 6.00 Build 0)  -->
<svg version="1.1" id="Layer_2" xmlns="http://www.w3.org/2000/svg" xmlns:xlink="http://www.w3.org/1999/xlink" x="0px" y="0px" viewBox="0 0 48 48" enable-background="new 0 0 48 48" xml:space="preserve">
<g>
	<path fill="none" stroke="#000000" stroke-width="2.4" stroke-miterlimit="10" d="M24,24l12,20.8 M24,24h24 M24,24l20.8,12 M24,24   h24 M24,24L36,3.2 M24,24l20.8-12 M24,24L36,3.2 M24,24L12,3.2 M24,24V0 M24,24L12,3.2 M24,24H0 M24,24L3.2,12 M24,24H0 M24,24   L12,44.8 M24,24L3.2,36 M24,24L12,44.8 M24,24l12,20.8 M24,24v24"/>
</g>
</svg>